<svg width="54" height="54" viewBox="0 0 54 54" fill="none" xmlns="http://www.w3.org/2000/svg">
<path fill-rule="evenodd" clip-rule="evenodd" d="M27 2.25C13.3313 2.25 2.25 13.3313 2.25 27C2.25 40.6688 13.3313 51.75 27 51.75C40.6688 51.75 51.75 40.6688 51.75 27C51.75 13.3313 40.6688 2.25 27 2.25ZM37.728 22.815C37.9255 22.5892 38.0759 22.3262 38.1703 22.0414C38.2647 21.7566 38.3012 21.4558 38.2776 21.1567C38.254 20.8576 38.1709 20.5663 38.033 20.2998C37.8952 20.0333 37.7055 19.7971 37.475 19.605C37.2445 19.413 36.9779 19.2689 36.691 19.1814C36.404 19.0939 36.1024 19.0646 35.804 19.0954C35.5056 19.1261 35.2163 19.2162 34.9532 19.3604C34.6901 19.5046 34.4585 19.7 34.272 19.935L24.597 31.5427L19.5907 26.5343C19.1664 26.1244 18.598 25.8976 18.0081 25.9027C17.4182 25.9079 16.8538 26.1445 16.4367 26.5617C16.0195 26.9788 15.7829 27.5432 15.7777 28.1331C15.7726 28.723 15.9994 29.2914 16.4093 29.7157L23.1593 36.4658C23.3803 36.6867 23.645 36.8592 23.9364 36.9721C24.2279 37.0851 24.5396 37.1361 24.8519 37.122C25.1641 37.1078 25.4699 37.0287 25.7499 36.8898C26.0299 36.7508 26.2779 36.5551 26.478 36.315L37.728 22.815Z" fill="#545A2F"/>
</svg>
