<svg width="35" height="17" viewBox="0 0 35 17" fill="none" xmlns="http://www.w3.org/2000/svg">
<path d="M1.61991 9.18182H33.3809C33.7229 9.18182 34.0004 8.87636 34.0004 8.5C34.0004 8.12364 33.7229 7.81818 33.3809 7.81818H1.61991C1.27796 7.81818 1.00043 8.12364 1.00043 8.5C1.00043 8.87636 1.27796 9.18182 1.61991 9.18182Z" fill="#1A1A18"/>
<path d="M26.1545 16C26.2318 16 26.3092 15.9718 26.3684 15.916L33.9457 8.70203C34.0019 8.64794 34.034 8.57487 34.034 8.49835C34.034 8.42182 34.0019 8.34875 33.9457 8.29467L26.3678 1.08415C26.25 0.971951 26.0584 0.971951 25.9405 1.08415C25.8227 1.19634 25.8227 1.37874 25.9405 1.49093L33.3045 8.49835L25.9405 15.5086C25.8227 15.6208 25.8227 15.8032 25.9405 15.9154C25.9998 15.9718 26.0771 16 26.1545 16Z" fill="#1A1A18"/>
<path d="M1.61991 9.18182H33.3809C33.7229 9.18182 34.0004 8.87636 34.0004 8.5C34.0004 8.12364 33.7229 7.81818 33.3809 7.81818H1.61991C1.27796 7.81818 1.00043 8.12364 1.00043 8.5C1.00043 8.87636 1.27796 9.18182 1.61991 9.18182Z" stroke="#1A1A18" stroke-width="0.681818"/>
<path d="M26.1545 16C26.2318 16 26.3092 15.9718 26.3684 15.916L33.9457 8.70203C34.0019 8.64794 34.034 8.57487 34.034 8.49835C34.034 8.42182 34.0019 8.34875 33.9457 8.29467L26.3678 1.08415C26.25 0.971951 26.0584 0.971951 25.9405 1.08415C25.8227 1.19634 25.8227 1.37874 25.9405 1.49093L33.3045 8.49835L25.9405 15.5086C25.8227 15.6208 25.8227 15.8032 25.9405 15.9154C25.9998 15.9718 26.0771 16 26.1545 16Z" stroke="#1A1A18" stroke-width="0.681818"/>
</svg>
