<svg width="34" height="14" viewBox="0 0 34 14" fill="none" xmlns="http://www.w3.org/2000/svg">
<path d="M0.619484 7.42576H32.3805C32.7225 7.42576 33 7.18339 33 6.88475C33 6.58612 32.7225 6.34375 32.3805 6.34375H0.619484C0.277527 6.34375 0 6.58612 0 6.88475C0 7.18339 0.277527 7.42576 0.619484 7.42576Z" fill="white"/>
<path d="M25.1541 12.8358C25.2315 12.8358 25.3088 12.8134 25.368 12.7691L32.9453 7.04499C33.0015 7.00207 33.0336 6.94409 33.0336 6.88337C33.0336 6.82265 33.0015 6.76467 32.9453 6.72175L25.3674 1.00036C25.2496 0.911337 25.058 0.911337 24.9401 1.00036C24.8223 1.08939 24.8223 1.23411 24.9401 1.32314L32.3041 6.88337L24.9401 12.4459C24.8223 12.5349 24.8223 12.6796 24.9401 12.7687C24.9994 12.8134 25.0767 12.8358 25.1541 12.8358Z" fill="white" stroke="white" stroke-width="0.681818"/>
</svg>
