<svg width="115" height="17" viewBox="0 0 115 17" fill="none" xmlns="http://www.w3.org/2000/svg">
<path d="M33.4141 9.18004H1.65302C1.31107 9.18004 1.03354 8.87459 1.03354 8.49822C1.03354 8.12186 1.31107 7.81641 1.65302 7.81641H33.4141C33.756 7.81641 34.0335 8.12186 34.0335 8.49822C34.0335 8.87459 33.756 9.18004 33.4141 9.18004Z" fill="#DADADA"/>
<path d="M8.87947 16C8.80211 16 8.72475 15.9718 8.66552 15.916L1.08824 8.70203C1.03203 8.64794 1 8.57487 1 8.49835C1 8.42182 1.03203 8.34875 1.08824 8.29467L8.66612 1.08415C8.78398 0.971951 8.97557 0.971951 9.09343 1.08415C9.21128 1.19634 9.21128 1.37874 9.09343 1.49093L1.7295 8.49835L9.09343 15.5086C9.21128 15.6208 9.21128 15.8032 9.09343 15.9154C9.0342 15.9718 8.95683 16 8.87947 16Z" stroke="#DADADA" stroke-width="0.681818"/>
<path d="M81.5859 9.18004H113.347C113.689 9.18004 113.966 8.87459 113.966 8.49822C113.966 8.12186 113.689 7.81641 113.347 7.81641H81.5859C81.244 7.81641 80.9665 8.12186 80.9665 8.49822C80.9665 8.87459 81.244 9.18004 81.5859 9.18004Z" fill="#333333"/>
<path d="M106.121 16C106.198 16 106.275 15.9718 106.334 15.916L113.912 8.70203C113.968 8.64794 114 8.57487 114 8.49835C114 8.42182 113.968 8.34875 113.912 8.29467L106.334 1.08415C106.216 0.971951 106.024 0.971951 105.907 1.08415C105.789 1.19634 105.789 1.37874 105.907 1.49093L113.27 8.49835L105.907 15.5086C105.789 15.6208 105.789 15.8032 105.907 15.9154C105.966 15.9718 106.043 16 106.121 16Z" fill="#333333" stroke="#333333" stroke-width="0.681818"/>
</svg>
