<svg width="54" height="54" viewBox="0 0 54 54" fill="none" xmlns="http://www.w3.org/2000/svg">
<path d="M16.2 26.9992C16.2 26.6412 16.3422 26.2978 16.5954 26.0446C16.8485 25.7915 17.1919 25.6492 17.55 25.6492H25.65V17.5492C25.65 17.1912 25.7922 16.8478 26.0454 16.5946C26.2985 16.3415 26.6419 16.1992 27 16.1992C27.358 16.1992 27.7014 16.3415 27.9545 16.5946C28.2077 16.8478 28.35 17.1912 28.35 17.5492V25.6492H36.4499C36.808 25.6492 37.1514 25.7915 37.4045 26.0446C37.6577 26.2978 37.7999 26.6412 37.7999 26.9992C37.7999 27.3573 37.6577 27.7006 37.4045 27.9538C37.1514 28.207 36.808 28.3492 36.4499 28.3492H28.35V36.4492C28.35 36.8073 28.2077 37.1506 27.9545 37.4038C27.7014 37.657 27.358 37.7992 27 37.7992C26.6419 37.7992 26.2985 37.657 26.0454 37.4038C25.7922 37.1506 25.65 36.8073 25.65 36.4492V28.3492H17.55C17.1919 28.3492 16.8485 28.207 16.5954 27.9538C16.3422 27.7006 16.2 27.3573 16.2 26.9992Z" fill="#545A2F"/>
<path d="M26.9999 48.5984C32.7286 48.5984 38.2226 46.3227 42.2734 42.2719C46.3242 38.2212 48.5999 32.7271 48.5999 26.9984C48.5999 21.2698 46.3242 15.7757 42.2734 11.7249C38.2226 7.67415 32.7286 5.39844 26.9999 5.39844C21.2712 5.39844 15.7772 7.67415 11.7264 11.7249C7.67561 15.7757 5.3999 21.2698 5.3999 26.9984C5.3999 32.7271 7.67561 38.2212 11.7264 42.2719C15.7772 46.3227 21.2712 48.5984 26.9999 48.5984ZM26.9999 45.8984C24.5179 45.8984 22.0602 45.4096 19.7672 44.4598C17.4741 43.5099 15.3906 42.1178 13.6356 40.3628C11.8806 38.6077 10.4884 36.5242 9.53858 34.2312C8.58877 31.9381 8.0999 29.4804 8.0999 26.9984C8.0999 24.5165 8.58877 22.0588 9.53858 19.7657C10.4884 17.4727 11.8806 15.3891 13.6356 13.6341C15.3906 11.8791 17.4741 10.4869 19.7672 9.53711C22.0602 8.5873 24.5179 8.09844 26.9999 8.09844C32.0125 8.09844 36.8198 10.0897 40.3642 13.6341C43.9087 17.1786 45.8999 21.9858 45.8999 26.9984C45.8999 32.011 43.9087 36.8183 40.3642 40.3628C36.8198 43.9072 32.0125 45.8984 26.9999 45.8984Z" fill="#545A2F"/>
</svg>
